# Blender v2.93.6 OBJ File: 'outside.blend'
# www.blender.org
mtllib wall_straight.mtl
o wall_straight_Cube.001
v -1.000000 0.500000 0.250000
v -1.000000 1.500000 0.250000
v -1.000000 0.500000 -0.250000
v -1.000000 1.500000 -0.250000
v 0.000000 0.500000 0.250000
v 0.000000 1.500000 0.250000
v 0.000000 0.500000 -0.250000
v 0.000000 1.500000 -0.250000
v -1.000000 1.753763 0.250000
v -1.000000 1.753763 -0.250000
v 0.000000 1.753763 0.250000
v 0.000000 1.753763 -0.250000
v -1.000000 1.500000 -0.394753
v 0.000000 1.500000 -0.394753
v 0.000000 1.500000 0.394753
v -1.000000 1.500000 0.394753
v -1.000000 1.753763 -0.394753
v 0.000000 1.753763 -0.394753
v 0.000000 1.753763 0.394753
v -1.000000 1.753763 0.394753
v -1.000000 1.992146 -0.250000
v 0.000000 1.992146 -0.250000
v 0.000000 1.992146 0.250000
v -1.000000 1.992146 0.250000
v -1.000000 1.992146 -0.394753
v 0.000000 1.992146 -0.394753
v 0.000000 1.992146 0.394753
v -1.000000 1.992146 0.394753
v 0.000000 0.500000 0.250000
v 0.000000 1.500000 0.250000
v 0.000000 0.500000 -0.250000
v 0.000000 1.500000 -0.250000
v 1.000000 0.500000 0.250000
v 1.000000 1.500000 0.250000
v 1.000000 0.500000 -0.250000
v 1.000000 1.500000 -0.250000
v 0.000000 1.753763 0.250000
v 0.000000 1.753763 -0.250000
v 1.000000 1.753763 0.250000
v 1.000000 1.753763 -0.250000
v 0.000000 1.500000 -0.394753
v 1.000000 1.500000 -0.394753
v 1.000000 1.500000 0.394753
v 0.000000 1.500000 0.394753
v 0.000000 1.753763 -0.394753
v 1.000000 1.753763 -0.394753
v 1.000000 1.753763 0.394753
v 0.000000 1.753763 0.394753
v 0.000000 1.992146 -0.250000
v 1.000000 1.992146 -0.250000
v 1.000000 1.992146 0.250000
v 0.000000 1.992146 0.250000
v 0.000000 1.992146 -0.394753
v 1.000000 1.992146 -0.394753
v 1.000000 1.992146 0.394753
v 0.000000 1.992146 0.394753
v 1.000000 0.500000 -1.000000
v 1.000000 0.000000 -1.000000
v 1.000000 0.500000 1.000000
v 1.000000 0.000000 1.000000
v -1.000000 0.500000 -1.000000
v -1.000000 0.000000 -1.000000
v -1.000000 0.500000 1.000000
v -1.000000 0.000000 1.000000
vt 0.554137 0.947863
vt 0.554137 0.947863
vt 0.554137 0.947863
vt 0.554137 0.947863
vt 0.554137 0.947863
vt 0.554137 0.947863
vt 0.554137 0.947863
vt 0.554137 0.947863
vt 0.554137 0.947863
vt 0.554137 0.947863
vt 0.554137 0.947863
vt 0.554137 0.947863
vt 0.554137 0.947863
vt 0.554137 0.947863
vt 0.554137 0.947863
vt 0.554137 0.947863
vt 0.554137 0.947863
vt 0.554137 0.947863
vt 0.554137 0.947863
vt 0.554137 0.947863
vt 0.554137 0.947863
vt 0.554137 0.947863
vt 0.554137 0.947863
vt 0.554137 0.947863
vt 0.554137 0.947863
vt 0.554137 0.947863
vt 0.554137 0.947863
vt 0.554137 0.947863
vt 0.554137 0.947863
vt 0.554137 0.947863
vt 0.554137 0.947863
vt 0.554137 0.947863
vt 0.554137 0.947863
vt 0.554137 0.947863
vt 0.554137 0.947863
vt 0.554137 0.947863
vt 0.554137 0.947863
vt 0.554137 0.947863
vt 0.554137 0.947863
vt 0.554137 0.947863
vt 0.554137 0.947863
vt 0.554137 0.947863
vt 0.554137 0.947863
vt 0.554137 0.947863
vt 0.554137 0.947863
vt 0.554137 0.947863
vt 0.554137 0.947863
vt 0.554137 0.947863
vt 0.554137 0.947863
vt 0.554137 0.947863
vt 0.554137 0.947863
vt 0.554137 0.947863
vt 0.554137 0.947863
vt 0.554137 0.947863
vt 0.554137 0.947863
vt 0.554137 0.947863
vt 0.933098 0.800216
vt 0.933098 0.800216
vt 0.933098 0.800216
vt 0.933098 0.800216
vt 0.933098 0.800216
vt 0.933098 0.800216
vt 0.933098 0.800216
vt 0.933098 0.800216
vn -1.0000 0.0000 0.0000
vn 0.0000 0.0000 -1.0000
vn 1.0000 0.0000 0.0000
vn 0.0000 0.0000 1.0000
vn 0.0000 -1.0000 0.0000
vn 0.0000 1.0000 0.0000
usemtl Material
s off
f 1/1/1 2/2/1 4/3/1 3/4/1
f 3/4/2 4/3/2 8/5/2 7/6/2
f 7/6/3 8/5/3 6/7/3 5/8/3
f 5/8/4 6/7/4 2/2/4 1/1/4
f 3/4/5 7/6/5 5/8/5 1/1/5
f 4/3/1 10/9/1 17/10/1 13/11/1
f 12/12/6 10/9/6 9/13/6 11/14/6
f 6/7/3 8/5/3 12/12/3 11/14/3
f 4/3/1 2/2/1 9/13/1 10/9/1
f 6/7/3 11/14/3 19/15/3 15/16/3
f 14/17/2 13/11/2 17/10/2 18/18/2
f 16/19/4 15/16/4 19/15/4 20/20/4
f 8/5/5 4/3/5 13/11/5 14/17/5
f 9/13/1 2/2/1 16/19/1 20/20/1
f 12/12/3 8/5/3 14/17/3 18/18/3
f 9/13/1 20/20/1 28/21/1 24/22/1
f 18/18/2 17/10/2 25/23/2 26/24/2
f 2/2/5 6/7/5 15/16/5 16/19/5
f 23/25/6 24/22/6 28/21/6 27/26/6
f 21/27/6 22/28/6 26/24/6 25/23/6
f 20/20/4 19/15/4 27/26/4 28/21/4
f 17/10/1 10/9/1 21/27/1 25/23/1
f 19/15/3 11/14/3 23/25/3 27/26/3
f 11/14/2 9/13/2 24/22/2 23/25/2
f 12/12/3 18/18/3 26/24/3 22/28/3
f 10/9/4 12/12/4 22/28/4 21/27/4
f 29/29/1 30/30/1 32/31/1 31/32/1
f 31/32/2 32/31/2 36/33/2 35/34/2
f 35/34/3 36/33/3 34/35/3 33/36/3
f 33/36/4 34/35/4 30/30/4 29/29/4
f 31/32/5 35/34/5 33/36/5 29/29/5
f 32/31/1 38/37/1 45/38/1 41/39/1
f 40/40/6 38/37/6 37/41/6 39/42/6
f 34/35/3 36/33/3 40/40/3 39/42/3
f 32/31/1 30/30/1 37/41/1 38/37/1
f 34/35/3 39/42/3 47/43/3 43/44/3
f 42/45/2 41/39/2 45/38/2 46/46/2
f 44/47/4 43/44/4 47/43/4 48/48/4
f 36/33/5 32/31/5 41/39/5 42/45/5
f 37/41/1 30/30/1 44/47/1 48/48/1
f 40/40/3 36/33/3 42/45/3 46/46/3
f 37/41/1 48/48/1 56/49/1 52/50/1
f 46/46/2 45/38/2 53/51/2 54/52/2
f 30/30/5 34/35/5 43/44/5 44/47/5
f 51/53/6 52/50/6 56/49/6 55/54/6
f 49/55/6 50/56/6 54/52/6 53/51/6
f 48/48/4 47/43/4 55/54/4 56/49/4
f 45/38/1 38/37/1 49/55/1 53/51/1
f 47/43/3 39/42/3 51/53/3 55/54/3
f 39/42/2 37/41/2 52/50/2 51/53/2
f 40/40/3 46/46/3 54/52/3 50/56/3
f 38/37/4 40/40/4 50/56/4 49/55/4
f 57/57/6 61/58/6 63/59/6 59/60/6
f 60/61/4 59/60/4 63/59/4 64/62/4
f 64/62/1 63/59/1 61/58/1 62/63/1
f 62/63/5 58/64/5 60/61/5 64/62/5
f 58/64/3 57/57/3 59/60/3 60/61/3
f 62/63/2 61/58/2 57/57/2 58/64/2
